<svg id="Capa_1" enable-background="new 0 0 512 512" height="512" viewBox="0 0 512 512" width="512" xmlns="http://www.w3.org/2000/svg"><g><path d="m504.5 248.5h-34.397c-1.493-43.872-16.08-85.455-42.43-120.688-2.48-3.317-7.181-3.996-10.498-1.515-3.316 2.481-3.995 7.181-1.514 10.498 24.395 32.62 37.949 71.097 39.436 111.705h-26.021c-3.836-89.574-76.002-161.74-165.576-165.575v-26.011c50.405 1.853 97.526 22.345 133.383 58.203 2.929 2.929 7.677 2.929 10.607 0 2.929-2.929 2.929-7.678 0-10.606-38.692-38.692-89.578-60.746-143.99-62.606v-34.405c0-4.142-3.357-7.5-7.5-7.5s-7.5 3.358-7.5 7.5v34.404c-55.059 1.877-106.387 24.373-145.229 63.856-2.904 2.953-2.866 7.701.087 10.606 1.461 1.437 3.36 2.153 5.26 2.153 1.939 0 3.879-.748 5.347-2.24 35.999-36.593 83.531-57.496 134.536-59.366v26.011c-89.575 3.836-161.741 76.002-165.577 165.576h-26.022c1.467-39.976 14.656-77.956 38.372-110.268 2.451-3.339 1.731-8.033-1.608-10.484-3.338-2.451-8.031-1.731-10.483 1.608-25.62 34.904-39.813 75.953-41.287 119.144h-34.396c-4.143 0-7.5 3.358-7.5 7.5s3.357 7.5 7.5 7.5h34.404c1.86 54.412 23.915 105.299 62.606 143.99 38.692 38.692 89.578 60.746 143.99 62.606v34.404c0 4.142 3.357 7.5 7.5 7.5s7.5-3.358 7.5-7.5v-34.404c54.413-1.86 105.299-23.914 143.99-62.606 38.691-38.691 60.745-89.578 62.605-143.99h34.405c4.143 0 7.5-3.358 7.5-7.5s-3.357-7.5-7.5-7.5zm-248.5-150.748c87.258 0 158.248 70.99 158.248 158.248s-70.99 158.248-158.248 158.248-158.248-70.99-158.248-158.248 70.99-158.248 158.248-158.248zm-199.084 165.748h26.008c3.836 89.574 76.001 161.74 165.576 165.575v26.009c-103.908-3.867-187.717-87.676-191.584-191.584zm206.584 191.584v-26.009c89.574-3.836 161.74-76.001 165.576-165.575h26.008c-3.867 103.908-87.676 187.717-191.584 191.584z"/><path d="m248.5 327.011v45.176c0 4.142 3.357 7.5 7.5 7.5s7.5-3.358 7.5-7.5v-45.176c33.396-3.502 60.009-30.115 63.511-63.511h45.176c4.143 0 7.5-3.358 7.5-7.5s-3.357-7.5-7.5-7.5h-45.176c-3.502-33.396-30.115-60.009-63.511-63.511v-45.176c0-4.142-3.357-7.5-7.5-7.5s-7.5 3.358-7.5 7.5v45.176c-33.396 3.502-60.009 30.115-63.511 63.511h-45.176c-4.143 0-7.5 3.358-7.5 7.5s3.357 7.5 7.5 7.5h45.176c3.502 33.396 30.115 60.009 63.511 63.511zm0-126.905v29.641c0 4.142 3.357 7.5 7.5 7.5s7.5-3.358 7.5-7.5v-29.641c25.113 3.353 45.04 23.281 48.394 48.394h-29.642c-4.143 0-7.5 3.358-7.5 7.5s3.357 7.5 7.5 7.5h29.642c-3.353 25.112-23.281 45.04-48.394 48.394v-29.641c0-4.142-3.357-7.5-7.5-7.5s-7.5 3.358-7.5 7.5v29.641c-25.113-3.353-45.04-23.281-48.394-48.394h29.642c4.143 0 7.5-3.358 7.5-7.5s-3.357-7.5-7.5-7.5h-29.642c3.354-25.112 23.281-45.04 48.394-48.394z"/></g></svg>